<?xml version="1.0" standalone="no"?>
<!DOCTYPE svg PUBLIC "-//W3C//DTD SVG 20010904//EN"
 "http://www.w3.org/TR/2001/REC-SVG-20010904/DTD/svg10.dtd">
<svg version="1.0" xmlns="http://www.w3.org/2000/svg"
 width="640.000000pt" height="640.000000pt" viewBox="0 0 640.000000 640.000000"
 preserveAspectRatio="xMidYMid meet">
<metadata>
Created by potrace 1.11, written by Peter Selinger 2001-2013
</metadata>
<g transform="translate(0.000000,640.000000) scale(0.100000,-0.100000)"
fill="#000000" stroke="none">
<path d="M2930 5386 c-354 -49 -654 -160 -943 -349 -452 -298 -783 -759 -916
-1280 -57 -220 -65 -292 -65 -552 0 -256 8 -335 60 -540 226 -904 994 -1561
1934 -1653 123 -13 389 -6 505 12 237 36 442 100 650 201 245 119 403 231 596
424 193 194 305 351 424 596 104 214 162 402 201 645 24 148 24 467 0 620
-149 971 -866 1700 -1836 1866 -128 21 -483 27 -610 10z m-880 -3712 c0 -8
-19 -13 -24 -6 -3 5 1 9 9 9 8 0 15 -2 15 -3z m57 -15 c-3 -11 0 -16 8 -13 7
3 15 -1 18 -10 3 -8 0 -17 -8 -20 -10 -3 -12 0 -8 12 6 14 4 15 -9 4 -11 -9
-18 -10 -23 -2 -3 6 -12 7 -18 3 -7 -4 -6 0 2 10 16 20 1 23 -18 5 -11 -11
-11 -9 -1 8 16 26 63 28 57 3z m76 -3 c-4 -6 1 -5 10 3 14 11 17 11 17 0 0
-11 2 -11 10 1 5 8 10 10 10 4 0 -6 10 -10 23 -10 12 1 26 0 31 -3 6 -2 19 -6
30 -7 12 -1 35 -5 51 -8 554 -120 989 -128 1520 -30 77 15 151 28 165 30 53 9
65 12 80 18 8 3 31 7 50 8 19 2 38 7 41 11 3 5 9 1 12 -8 5 -11 3 -14 -6 -9
-9 5 -9 4 1 -7 15 -17 16 -30 0 -27 -6 2 -13 -6 -15 -17 -2 -16 -1 -16 5 -4 4
9 15 15 25 13 9 -1 15 2 11 7 -3 5 -7 18 -9 30 -3 17 0 20 15 16 11 -3 23 -1
26 4 3 6 10 6 17 1 7 -5 20 -8 30 -6 18 2 18 1 2 -16 -17 -19 -45 -17 -45 3 0
6 -3 7 -6 4 -4 -4 -1 -15 7 -24 7 -10 9 -15 4 -10 -4 4 -17 0 -27 -10 -10 -9
-18 -12 -18 -8 0 5 -12 -2 -27 -16 -14 -13 -23 -19 -19 -12 3 6 2 14 -4 18 -6
4 -8 10 -5 15 3 5 1 11 -3 14 -5 3 -8 -10 -7 -29 2 -19 -1 -32 -6 -29 -5 3 -7
10 -4 15 4 5 -2 6 -12 2 -15 -6 -16 -4 -5 9 9 11 10 18 2 23 -6 4 -10 3 -9 -2
4 -20 -2 -24 -18 -12 -15 11 -16 11 -6 0 9 -10 7 -21 -7 -46 -10 -18 -16 -36
-12 -41 4 -4 1 -4 -6 0 -7 4 -10 12 -7 17 4 5 1 9 -5 9 -6 0 -8 5 -4 11 4 8 9
7 16 -2 8 -11 9 -10 5 2 -3 9 0 23 6 30 7 7 3 6 -8 -3 -11 -8 -28 -14 -38 -13
-9 2 -15 -1 -12 -5 3 -5 1 -11 -5 -15 -5 -3 -10 0 -10 7 -1 7 -6 3 -13 -10 -7
-12 -16 -20 -19 -17 -3 3 -11 -2 -19 -12 -12 -14 -12 -16 0 -8 11 6 13 4 8
-11 -7 -18 -7 -18 8 0 11 14 15 16 15 5 0 -12 2 -12 10 1 9 13 10 13 10 0 0
-9 3 -11 8 -5 6 9 27 11 42 5 17 -6 39 -7 35 -1 -2 4 2 8 10 8 8 0 11 -5 8
-10 -4 -6 -1 -7 8 -1 23 14 37 13 43 -3 3 -8 1 -11 -5 -8 -5 4 -16 1 -24 -5
-8 -7 -15 -9 -15 -5 0 4 -6 2 -13 -4 -8 -6 -17 -7 -21 -3 -4 4 -7 2 -6 -3 5
-21 -1 -29 -10 -15 -7 12 -9 10 -7 -7 1 -16 5 -19 13 -12 13 11 26 -3 31 -33
3 -19 -17 -18 -43 2 -18 14 -18 14 -4 -4 14 -18 13 -19 -2 -13 -12 4 -15 2
-12 -7 3 -8 0 -17 -6 -21 -6 -3 -10 -3 -9 2 4 20 -2 24 -18 12 -15 -12 -16
-12 -8 1 8 13 7 13 -9 0 -18 -14 -78 -22 -70 -9 6 11 -22 5 -38 -8 -8 -7 -19
-8 -28 -3 -8 5 -22 4 -33 -1 -10 -6 -30 -9 -45 -8 -15 2 -32 1 -37 -3 -6 -3
-18 -4 -27 -3 -11 2 -15 -2 -11 -13 4 -10 2 -13 -5 -8 -7 4 -12 5 -12 2 0 -2
-3 -13 -7 -23 -4 -12 2 -9 20 10 20 21 27 24 27 12 0 -9 5 -13 10 -10 6 4 7
11 4 17 -5 7 -2 8 6 3 9 -5 11 -4 6 3 -4 7 -5 12 -2 12 17 0 12 -21 -11 -41
-14 -13 -23 -18 -19 -11 12 21 -9 13 -34 -13 -13 -14 -25 -23 -28 -21 -2 3
-14 1 -26 -4 -23 -8 -48 0 -47 16 1 5 -2 9 -6 9 -5 0 -14 4 -22 9 -19 12 37
-64 62 -85 19 -15 19 -16 0 -14 -10 0 -23 3 -28 6 -19 10 -40 3 -37 -11 3 -10
-3 -9 -17 4 -12 11 -21 15 -21 10 0 -5 -17 -10 -37 -11 -47 -2 -138 -10 -138
-13 0 -6 -58 -5 -67 1 -7 4 -20 3 -29 -2 -12 -6 -20 -5 -24 1 -5 8 -11 8 -20
0 -10 -8 -15 -8 -20 0 -5 8 -10 8 -20 0 -10 -8 -15 -8 -20 0 -5 8 -10 8 -20 0
-8 -6 -16 -7 -19 -2 -6 9 -53 8 -63 -2 -3 -3 -14 -1 -24 5 -14 7 -19 6 -19 -3
0 -8 -3 -9 -8 -3 -7 11 -48 15 -169 18 -43 2 -59 5 -52 13 5 6 6 14 2 17 -3 4
-1 7 5 7 7 0 12 -6 13 -12 0 -10 2 -10 6 0 2 6 9 12 14 12 6 0 8 -4 5 -9 -6
-9 7 -9 34 2 8 3 24 8 35 10 14 3 12 5 -8 6 -19 1 -26 5 -21 13 5 7 3 8 -7 2
-17 -11 -89 -12 -83 -2 8 13 -11 9 -25 -4 -11 -11 -12 -10 -6 1 6 11 3 13 -12
9 -12 -3 -27 -2 -34 3 -11 7 -11 9 -1 9 8 0 10 5 6 13 -5 8 -2 8 9 -2 9 -7 17
-10 17 -6 0 4 8 1 18 -6 15 -12 16 -12 5 2 -7 9 -10 19 -7 22 4 4 -3 5 -14 2
-12 -2 -24 0 -27 5 -4 6 -40 7 -40 0 0 -1 -8 -3 -18 -5 -9 -2 -15 1 -11 6 8
13 -10 11 -25 -3 -9 -8 -11 -8 -8 -2 8 14 -20 27 -36 18 -9 -5 -9 -4 -1 5 9
10 17 10 33 2 17 -10 21 -9 21 5 0 13 4 11 19 -7 l18 -23 -1 22 c0 12 -4 21
-7 20 -3 -2 -12 2 -20 8 -8 6 -35 10 -61 8 -28 -1 -48 2 -48 8 0 6 -8 4 -17
-3 -11 -10 -14 -10 -9 -1 4 6 3 12 -3 12 -5 0 -13 -5 -16 -10 -5 -8 -12 -7
-22 1 -19 16 -53 19 -53 5 0 -6 -5 -4 -10 4 -9 13 -10 13 -10 0 -1 -13 -2 -13
-10 1 -7 13 -19 15 -54 9 -32 -5 -43 -3 -39 5 2 8 -5 11 -20 10 -20 -2 -24 2
-24 21 0 30 5 30 17 2 6 -17 9 -18 9 -6 1 9 -4 20 -9 23 -6 4 -8 15 -5 26 4
11 2 19 -4 19 -6 0 -12 -10 -13 -22 0 -13 -2 -28 -2 -35 -2 -24 -22 -35 -36
-18 -7 8 -9 15 -6 15 4 0 2 10 -4 23 -10 20 -9 20 9 -3 21 -26 28 -21 12 9 -6
11 -6 22 1 32 8 12 9 11 5 -2 -3 -9 -1 -22 4 -30 6 -10 9 -6 9 14 0 15 -7 30
-15 33 -8 4 -15 9 -15 13 0 11 32 6 60 -9 22 -11 23 -11 13 1 -10 12 -7 14 20
13 18 -1 32 -3 32 -4 0 -1 20 -3 46 -4 39 -2 45 1 47 18 1 17 -1 18 -8 6 -8
-13 -10 -13 -10 -1 0 11 -4 9 -15 -5 -15 -18 -15 -18 -8 0 5 16 3 18 -15 14
-19 -5 -21 -3 -17 19 2 14 1 22 -3 18 -4 -3 -8 -11 -8 -16 -1 -5 -3 -17 -4
-26 -1 -13 -4 -11 -9 7 -5 14 -3 31 3 40 9 13 9 13 -5 2 -10 -7 -15 -22 -13
-35 4 -21 4 -21 -6 1 -5 13 -8 28 -5 32 3 5 -3 7 -12 6 -10 -2 -21 1 -24 7 -4
5 -10 0 -14 -12 -6 -21 -7 -22 -22 -4 -14 17 -14 17 -8 -2 5 -15 3 -17 -6 -8
-15 15 -2 38 15 24 9 -8 13 -7 13 4 0 8 -5 11 -10 8 -7 -4 -8 1 -4 13 6 16 5
17 -5 4 -7 -8 -21 -21 -31 -29 -15 -12 -18 -12 -15 -1 2 8 -3 15 -9 16 -7 1
-16 3 -20 4 -5 1 -12 2 -16 1 -5 -1 -5 4 -1 11 10 15 13 47 5 46 -15 -1 -22 3
-17 10 3 5 19 7 35 4 20 -3 28 -8 24 -16z m1983 -98 c15 -19 16 -20 2 -9 -17
12 -23 9 -19 -12 1 -5 -3 -6 -8 -3 -7 5 -8 23 -2 44 2 6 9 0 27 -20z m-1886 1
c0 20 10 8 15 -19 4 -22 4 -22 -15 -5 -11 10 -20 23 -20 29 0 6 5 4 10 -4 8
-12 10 -12 10 -1z m1796 -27 c1 -15 -1 -21 -3 -14 -3 6 -10 9 -16 5 -22 -14
-36 -11 -29 5 4 11 7 12 10 3 3 -8 9 -6 19 8 18 26 18 26 19 -7z m-1696 -16
c0 -3 -4 -8 -10 -11 -5 -3 -10 -1 -10 4 0 6 5 11 10 11 6 0 10 -2 10 -4z
m-175 -36 c3 -6 -1 -7 -9 -4 -18 7 -21 14 -7 14 6 0 13 -4 16 -10z m1971 -17
c0 -10 5 -17 12 -15 9 2 11 -2 6 -10 -5 -7 -9 -17 -9 -23 0 -5 -4 -11 -9 -12
-5 -1 -12 -7 -16 -13 -5 -8 -9 -7 -13 5 -4 9 -3 13 3 10 19 -12 10 7 -12 26
l-23 18 21 1 c12 0 24 7 28 15 7 20 14 19 12 -2z m-1536 -129 c0 -8 -19 -13
-24 -6 -3 5 1 9 9 9 8 0 15 -2 15 -3z m80 -50 c0 -8 -19 -13 -24 -6 -3 5 1 9
9 9 8 0 15 -2 15 -3z m64 -76 c-3 -4 -12 -8 -20 -8 -8 0 -13 4 -10 8 3 5 12 9
20 9 8 0 13 -4 10 -9z"/>
<path d="M2084 1656 c1 -8 5 -18 8 -22 4 -3 5 1 4 10 -1 8 -5 18 -8 22 -4 3
-5 -1 -4 -10z"/>
<path d="M4290 1667 c0 -2 6 -10 14 -16 11 -9 16 -9 22 1 4 7 4 10 -1 6 -4 -4
-14 -3 -22 3 -7 6 -13 9 -13 6z"/>
<path d="M2163 1649 c3 -9 1 -21 -5 -27 -6 -6 -6 -12 1 -16 6 -4 11 -4 11 0 0
3 6 1 14 -5 11 -9 16 -9 22 0 4 7 3 9 -4 5 -11 -7 -25 9 -28 32 -2 8 -6 17
-10 20 -4 4 -5 0 -1 -9z"/>
<path d="M3962 1531 c2 -19 -4 -24 -12 -11 -7 12 -9 11 -8 -6 1 -11 8 -21 15
-21 7 0 11 3 8 5 -3 3 2 13 10 22 13 14 13 17 1 17 -8 0 -15 -3 -14 -6z"/>
<path d="M2443 1513 c1 -17 4 -19 14 -11 15 12 18 22 4 14 -5 -4 -11 0 -14 6
-3 7 -4 3 -4 -9z"/>
<path d="M3870 1516 c0 -2 8 -10 18 -17 15 -13 16 -12 3 4 -13 16 -21 21 -21
13z"/>
<path d="M2276 1438 c3 -4 11 -5 19 -1 21 7 19 12 -4 10 -11 0 -18 -5 -15 -9z"/>
<path d="M2216 1398 c3 -5 10 -6 15 -3 13 9 11 12 -6 12 -8 0 -12 -4 -9 -9z"/>
<path d="M2695 1331 c-3 -5 -2 -12 3 -15 5 -3 9 1 9 9 0 17 -3 19 -12 6z"/>
<path d="M3705 1329 c-4 -6 -5 -12 -2 -15 2 -3 7 2 10 11 7 17 1 20 -8 4z"/>
<path d="M3686 1299 c3 -10 0 -20 -7 -25 -7 -4 -10 -3 -5 4 3 6 2 13 -3 16 -5
4 -12 2 -16 -4 -4 -6 -10 -8 -15 -5 -4 3 -5 -5 -2 -17 5 -19 7 -20 10 -5 2 10
8 14 15 10 34 -21 54 -6 32 23 -12 15 -14 15 -9 3z"/>
<path d="M2786 1268 c3 -5 10 -6 15 -3 13 9 11 12 -6 12 -8 0 -12 -4 -9 -9z"/>
<path d="M3566 1231 c3 -9 7 -21 7 -28 0 -7 5 -9 11 -5 16 10 29 9 45 -2 10
-8 9 -3 -3 15 -19 31 -72 48 -60 20z"/>
<path d="M3485 1230 c-19 -8 -19 -9 3 -9 12 -1 22 4 22 9 0 6 -1 10 -2 9 -2 0
-12 -4 -23 -9z"/>
<path d="M3517 1221 c-2 -10 1 -18 9 -18 7 0 10 5 7 10 -4 6 1 8 11 4 11 -5
16 -3 14 5 -6 18 -36 18 -41 -1z"/>
<path d="M4154 1442 c-6 -4 -3 -13 8 -24 17 -17 18 -17 15 2 -4 25 -10 31 -23
22z"/>
</g>
</svg>
